<svg width="30" height="30" viewBox="0 0 30 30" fill="none" xmlns="http://www.w3.org/2000/svg">
<path d="M24.3164 5.68359C23.6523 5 22.9297 4.4043 22.1484 3.89648C21.3672 3.36914 20.5518 2.92969 19.7021 2.57812C18.8525 2.22656 17.9688 1.96289 17.0508 1.78711C16.1328 1.5918 15.1953 1.49414 14.2383 1.49414C13.3008 1.49414 12.373 1.5918 11.4551 1.78711C10.5371 1.96289 9.64844 2.22656 8.78906 2.57812C7.92969 2.92969 7.11914 3.36914 6.35742 3.89648C5.57617 4.4043 4.84375 5 4.16016 5.68359C3.49609 6.34766 2.90039 7.07031 2.37305 7.85156C1.86523 8.63281 1.43555 9.44824 1.08398 10.2979C0.732422 11.1475 0.458984 12.0312 0.263672 12.9492C0.0878906 13.8672 0 14.8047 0 15.7617C0 16.6992 0.0878906 17.627 0.263672 18.5449C0.458984 19.4629 0.732422 20.3516 1.08398 21.2109C1.43555 22.0703 1.86523 22.8809 2.37305 23.6426C2.90039 24.4238 3.49609 25.1562 4.16016 25.8398C4.84375 26.5039 5.57617 27.0996 6.35742 27.627C7.11914 28.1348 7.92969 28.5645 8.78906 28.916C9.64844 29.2676 10.5371 29.541 11.4551 29.7363C12.373 29.9121 13.3008 30 14.2383 30C15.1953 30 16.1328 29.9121 17.0508 29.7363C17.9688 29.541 18.8525 29.2676 19.7021 28.916C20.5518 28.5645 21.3672 28.1348 22.1484 27.627C22.9297 27.0996 23.6523 26.5039 24.3164 25.8398C25 25.1562 25.5957 24.4238 26.1035 23.6426C26.6309 22.8809 27.0703 22.0703 27.4219 21.2109C27.7734 20.3516 28.0371 19.4629 28.2129 18.5449C28.4082 17.627 28.5059 16.6992 28.5059 15.7617C28.5059 14.8047 28.4082 13.8672 28.2129 12.9492C28.0371 12.0312 27.7734 11.1475 27.4219 10.2979C27.0703 9.44824 26.6309 8.63281 26.1035 7.85156C25.5957 7.07031 25 6.34766 24.3164 5.68359ZM14.2383 28.5059C12.4805 28.5059 10.8301 28.1738 9.28711 27.5098C7.74414 26.8262 6.39648 25.9082 5.24414 24.7559C4.0918 23.6035 3.17383 22.2559 2.49023 20.7129C1.82617 19.1699 1.49414 17.5195 1.49414 15.7617C1.49414 14.0039 1.82617 12.3438 2.49023 10.7812C3.17383 9.23828 4.0918 7.89062 5.24414 6.73828C6.39648 5.58594 7.74414 4.67773 9.28711 4.01367C10.8301 3.33008 12.4805 2.98828 14.2383 2.98828C15.9961 2.98828 17.6562 3.33008 19.2188 4.01367C20.7617 4.67773 22.1094 5.58594 23.2617 6.73828C24.4141 7.89062 25.3223 9.23828 25.9863 10.7812C26.6699 12.3438 27.0117 14.0039 27.0117 15.7617C27.0117 17.5195 26.6699 19.1699 25.9863 20.7129C25.3223 22.2559 24.4141 23.6035 23.2617 24.7559C22.1094 25.9082 20.7617 26.8262 19.2188 27.5098C17.6562 28.1738 15.9961 28.5059 14.2383 28.5059ZM23.0273 15.2344L17.0215 9.22852C16.8848 9.07227 16.7139 8.99414 16.5088 8.99414C16.3037 8.99414 16.123 9.07227 15.9668 9.22852C15.8301 9.36523 15.7617 9.53613 15.7617 9.74121C15.7617 9.94629 15.8301 10.127 15.9668 10.2832L20.6836 15H5.24414C5.04883 15 4.87793 15.0732 4.73145 15.2197C4.58496 15.3662 4.51172 15.5469 4.51172 15.7617C4.51172 15.957 4.58496 16.1279 4.73145 16.2744C4.87793 16.4209 5.04883 16.4941 5.24414 16.4941H20.6836L15.9668 21.2109C15.8301 21.3672 15.7617 21.5479 15.7617 21.7529C15.7617 21.958 15.8301 22.1387 15.9668 22.2949C16.0449 22.3535 16.1279 22.4023 16.2158 22.4414C16.3037 22.4805 16.3965 22.5 16.4941 22.5C16.5918 22.5 16.6895 22.4805 16.7871 22.4414C16.8848 22.4023 16.9629 22.3438 17.0215 22.2656L23.0273 16.2891C23.1836 16.1328 23.2617 15.9521 23.2617 15.7471C23.2617 15.542 23.1836 15.3711 23.0273 15.2344Z" fill="#00B49F"/>
</svg>
