<svg width="30" height="30" viewBox="0 0 30 30" fill="none" xmlns="http://www.w3.org/2000/svg">
<path d="M4.16016 5.68359C4.84375 5 5.57617 4.4043 6.35742 3.89648C7.11914 3.36914 7.92969 2.92969 8.78906 2.57812C9.64844 2.22656 10.5371 1.96289 11.4551 1.78711C12.373 1.5918 13.3008 1.49414 14.2383 1.49414C15.1953 1.49414 16.1328 1.5918 17.0508 1.78711C17.9688 1.96289 18.8525 2.22656 19.7021 2.57812C20.5518 2.92969 21.3672 3.36914 22.1484 3.89648C22.9297 4.4043 23.6523 5 24.3164 5.68359C25 6.34766 25.5957 7.07031 26.1035 7.85156C26.6309 8.63281 27.0703 9.44824 27.4219 10.2979C27.7734 11.1475 28.0371 12.0312 28.2129 12.9492C28.4082 13.8672 28.5059 14.8047 28.5059 15.7617C28.5059 16.6992 28.4082 17.627 28.2129 18.5449C28.0371 19.4629 27.7734 20.3516 27.4219 21.2109C27.0703 22.0703 26.6309 22.8809 26.1035 23.6426C25.5957 24.4238 25 25.1562 24.3164 25.8398C23.6523 26.5039 22.9297 27.0996 22.1484 27.627C21.3672 28.1348 20.5518 28.5645 19.7021 28.916C18.8525 29.2676 17.9688 29.541 17.0508 29.7363C16.1328 29.9121 15.1953 30 14.2383 30C13.3008 30 12.373 29.9121 11.4551 29.7363C10.5371 29.541 9.64844 29.2676 8.78906 28.916C7.92969 28.5645 7.11914 28.1348 6.35742 27.627C5.57617 27.0996 4.84375 26.5039 4.16016 25.8398C3.49609 25.1562 2.90039 24.4238 2.37305 23.6426C1.86523 22.8809 1.43555 22.0703 1.08398 21.2109C0.732422 20.3516 0.458984 19.4629 0.263672 18.5449C0.0878906 17.627 0 16.6992 0 15.7617C0 14.8047 0.0878906 13.8672 0.263672 12.9492C0.458984 12.0312 0.732422 11.1475 1.08398 10.2979C1.43555 9.44824 1.86523 8.63281 2.37305 7.85156C2.90039 7.07031 3.49609 6.34766 4.16016 5.68359ZM14.2383 28.5059C15.9961 28.5059 17.6562 28.1738 19.2188 27.5098C20.7617 26.8262 22.1094 25.9082 23.2617 24.7559C24.4141 23.6035 25.3223 22.2559 25.9863 20.7129C26.6699 19.1699 27.0117 17.5195 27.0117 15.7617C27.0117 14.0039 26.6699 12.3438 25.9863 10.7812C25.3223 9.23828 24.4141 7.89062 23.2617 6.73828C22.1094 5.58594 20.7617 4.67773 19.2188 4.01367C17.6562 3.33008 15.9961 2.98828 14.2383 2.98828C12.4805 2.98828 10.8301 3.33008 9.28711 4.01367C7.74414 4.67773 6.39648 5.58594 5.24414 6.73828C4.0918 7.89062 3.17383 9.23828 2.49023 10.7812C1.82617 12.3438 1.49414 14.0039 1.49414 15.7617C1.49414 17.5195 1.82617 19.1699 2.49023 20.7129C3.17383 22.2559 4.0918 23.6035 5.24414 24.7559C6.39648 25.9082 7.74414 26.8262 9.28711 27.5098C10.8301 28.1738 12.4805 28.5059 14.2383 28.5059ZM5.47852 15.2344L11.4844 9.22852C11.6211 9.07227 11.792 8.99414 11.9971 8.99414C12.2021 8.99414 12.3828 9.07227 12.5391 9.22852C12.6758 9.36523 12.7441 9.53613 12.7441 9.74121C12.7441 9.94629 12.6758 10.127 12.5391 10.2832L7.82227 15H23.2617C23.457 15 23.6279 15.0732 23.7744 15.2197C23.9209 15.3662 23.9941 15.5469 23.9941 15.7617C23.9941 15.957 23.9209 16.1279 23.7744 16.2744C23.6279 16.4209 23.457 16.4941 23.2617 16.4941H7.82227L12.5391 21.2109C12.6758 21.3672 12.7441 21.5479 12.7441 21.7529C12.7441 21.958 12.6758 22.1387 12.5391 22.2949C12.4609 22.3535 12.3779 22.4023 12.29 22.4414C12.2021 22.4805 12.1094 22.5 12.0117 22.5C11.9141 22.5 11.8164 22.4805 11.7188 22.4414C11.6211 22.4023 11.543 22.3438 11.4844 22.2656L5.47852 16.2891C5.32227 16.1328 5.24414 15.9521 5.24414 15.7471C5.24414 15.542 5.32227 15.3711 5.47852 15.2344Z" fill="#00B49F"/>
</svg>
