<svg xmlns="http://www.w3.org/2000/svg" xmlns:xlink="http://www.w3.org/1999/xlink" width="60" zoomAndPan="magnify" viewBox="0 0 45 30.000001" height="40" preserveAspectRatio="xMidYMid meet" version="1.0"><defs><clipPath id="bbe0f59fd0"><path d="M 0.726562 0 L 44.273438 0 L 44.273438 29.03125 L 0.726562 29.03125 Z M 0.726562 0 " clip-rule="nonzero"/></clipPath><clipPath id="db88221944"><path d="M 0.726562 0.00390625 L 14.679688 0.00390625 L 14.679688 29.027344 L 0.726562 29.027344 Z M 0.726562 0.00390625 " clip-rule="nonzero"/></clipPath><clipPath id="f98c5d19ad"><path d="M 30.375 0.00390625 L 44.273438 0.00390625 L 44.273438 29.027344 L 30.375 29.027344 Z M 30.375 0.00390625 " clip-rule="nonzero"/></clipPath><clipPath id="1ff7d00647"><path d="M 14.640625 0.00390625 L 30.414062 0.00390625 L 30.414062 29.027344 L 14.640625 29.027344 Z M 14.640625 0.00390625 " clip-rule="nonzero"/></clipPath></defs><g clip-path="url(#bbe0f59fd0)"><path fill="#ffffff" d="M 0.726562 0 L 44.273438 0 L 44.273438 29.03125 L 0.726562 29.03125 Z M 0.726562 0 " fill-opacity="1" fill-rule="nonzero"/><path fill="#ffffff" d="M 0.726562 0 L 44.273438 0 L 44.273438 29.03125 L 0.726562 29.03125 Z M 0.726562 0 " fill-opacity="1" fill-rule="nonzero"/></g><g clip-path="url(#db88221944)"><path fill="#0aa14a" d="M -1.050781 0.0078125 L -1.050781 29.019531 L 14.671875 29.019531 L 14.671875 0.0078125 L -1.050781 0.0078125 " fill-opacity="1" fill-rule="nonzero"/><path fill="#000000" d="M -1.046875 29.015625 L 14.664062 29.015625 L 14.664062 0.0117188 L -1.046875 0.0117188 Z M 14.675781 29.027344 L -1.054688 29.027344 L -1.054688 0.00390625 L 14.675781 0.00390625 L 14.675781 29.027344 " fill-opacity="1" fill-rule="nonzero"/></g><g clip-path="url(#f98c5d19ad)"><path fill="#0aa14a" d="M 30.394531 0.0078125 L 30.394531 29.019531 L 46.117188 29.019531 L 46.117188 0.0078125 L 30.394531 0.0078125 " fill-opacity="1" fill-rule="nonzero"/><path fill="#000000" d="M 30.398438 29.015625 L 46.109375 29.015625 L 46.109375 0.0117188 L 30.398438 0.0117188 Z M 46.121094 29.027344 L 30.390625 29.027344 L 30.390625 0.00390625 L 46.121094 0.00390625 L 46.121094 29.027344 " fill-opacity="1" fill-rule="nonzero"/></g><g clip-path="url(#1ff7d00647)"><path fill="#ffffff" d="M 14.671875 0.0078125 L 14.671875 29.019531 L 30.394531 29.019531 L 30.394531 0.0078125 L 14.671875 0.0078125 " fill-opacity="1" fill-rule="nonzero"/><path fill="#000000" d="M 14.675781 29.015625 L 30.390625 29.015625 L 30.390625 0.0117188 L 14.675781 0.0117188 Z M 30.398438 29.027344 L 14.664062 29.027344 L 14.664062 0.00390625 L 30.398438 0.00390625 L 30.398438 29.027344 " fill-opacity="1" fill-rule="nonzero"/></g></svg>