<svg xmlns="http://www.w3.org/2000/svg" xmlns:xlink="http://www.w3.org/1999/xlink" width="60" zoomAndPan="magnify" viewBox="0 0 45 30.000001" height="40" preserveAspectRatio="xMidYMid meet" version="1.0"><defs><clipPath id="a2cab96261"><path d="M 0.726562 0 L 44.273438 0 L 44.273438 29.03125 L 0.726562 29.03125 Z M 0.726562 0 " clip-rule="nonzero"/></clipPath></defs><g clip-path="url(#a2cab96261)"><path fill="#ffffff" d="M 0.726562 0 L 44.273438 0 L 44.273438 29.03125 L 0.726562 29.03125 Z M 0.726562 0 " fill-opacity="1" fill-rule="nonzero"/><path fill="#ffffff" d="M 0.726562 0 L 44.273438 0 L 44.273438 29.03125 L 0.726562 29.03125 Z M 0.726562 0 " fill-opacity="1" fill-rule="nonzero"/><path fill="#fffffc" d="M 20.214844 0 L 20.214844 11.628906 L -1.648438 11.628906 L -1.648438 9.628906 L 9.003906 9.628906 L -1.648438 3.257812 L -1.648438 2.070312 L 10.796875 9.628906 L 14.515625 9.628906 L -1.648438 0 L 3.675781 0 L 18.414062 8.890625 L 18.414062 0 Z M 1.878906 29.03125 L 18.109375 19.332031 L 14.515625 19.332031 L -1.648438 29.03125 L -1.648438 25.699219 L 9.003906 19.332031 L -1.648438 19.332031 L -1.648438 17.40625 L 20.214844 17.40625 L 20.214844 29.03125 L 18.414062 29.03125 L 18.414062 20.144531 L 3.675781 29.03125 Z M 46.914062 19.332031 L 36.199219 19.332031 L 46.914062 25.699219 L 46.914062 26.886719 L 34.273438 19.332031 L 30.6875 19.332031 L 46.914062 29.03125 L 41.402344 29.03125 L 26.65625 20.144531 L 26.65625 29.03125 L 25.046875 29.03125 L 25.046875 17.40625 L 46.914062 17.40625 Z M 46.914062 0 L 46.914062 3.257812 L 36.199219 9.628906 L 46.914062 9.628906 L 46.914062 11.628906 L 25.046875 11.628906 L 25.046875 0 L 26.65625 0 L 26.65625 8.890625 L 41.402344 0 L 43.136719 0 L 26.96875 9.628906 L 30.6875 9.628906 L 46.914062 0 " fill-opacity="1" fill-rule="evenodd"/><path fill="#d21e26" d="M -1.648438 0 L 14.515625 9.628906 L 10.796875 9.628906 L -1.648438 2.070312 Z M 46.914062 29.03125 L 30.6875 19.332031 L 34.273438 19.332031 L 46.914062 26.886719 Z M -1.648438 29.03125 L 14.515625 19.332031 L 18.109375 19.332031 L 1.878906 29.03125 Z M 46.914062 0 L 30.6875 9.628906 L 26.96875 9.628906 L 43.136719 0 Z M 20.214844 0 L 25.046875 0 L 25.046875 11.628906 L 46.914062 11.628906 L 46.914062 17.40625 L 25.046875 17.40625 L 25.046875 29.03125 L 20.214844 29.03125 L 20.214844 17.40625 L -1.648438 17.40625 L -1.648438 11.628906 L 20.214844 11.628906 L 20.214844 0 " fill-opacity="1" fill-rule="evenodd"/><path fill="#2a2c7b" d="M 18.414062 0 L 18.414062 8.890625 L 3.675781 0 Z M 26.65625 0 L 41.402344 0 L 26.65625 8.890625 Z M -1.648438 3.257812 L 9.003906 9.628906 L -1.648438 9.628906 Z M -1.648438 19.332031 L 9.003906 19.332031 L -1.648438 25.699219 Z M 26.65625 29.03125 L 26.65625 20.144531 L 41.402344 29.03125 Z M 18.414062 29.03125 L 3.675781 29.03125 L 18.414062 20.144531 Z M 46.914062 9.628906 L 36.199219 9.628906 L 46.914062 3.257812 Z M 46.914062 19.332031 L 46.914062 25.699219 L 36.199219 19.332031 L 46.914062 19.332031 " fill-opacity="1" fill-rule="evenodd"/></g></svg>